:SAMPLES-PER-SECOND 30
:FRAME-RANGE 1-3535
:FULLY-SPECIFIED
:DEGREES
663
root  53.1732 39.2363 17.9465 177.318 -44.4571 -174.691
RightUpLeg  -12.0469 -7.09096 -0.16671
RightLeg  13.0223 -16.7506 0.697831
RightFoot  -2.39969 -0.323759 3.92896
RightToes  1.22775e-009 1.2921e-014 -6.02303e-014
Spine  10.1697 -0.344398 10.9181
Spine1  0.591665 1.02768 -0.143784
HEad  -10.8188 23.272 -10.1194
LeftShoulder1  1.59277 -0.484516 -33.8778
LeftArm  16.1706 5.72966 -29.9284
LeftForeArm  4.47068 -1.68475 -18.8554
LeftHand  0.322022 -1.51415 -5.29723
RightShoulder  8.31165 11.4154 48.7954
RightArm  -3.04506 1.57252 13.6742
RightForeArm  22.1545 -3.07686 15.5635
RightHand  0.0733179 6.22582 0.393423
LeftUpLeg  -4.38942 5.06648 11.381
LeftLeg  38.0529 4.67334 4.27569
LeftFoot  -2.51381 0.991977 -12.6171
LeftToes  2.52163e-011 5.65494e-011 -1.09494e-012
664
root  52.87 39.1168 17.0843 176.346 -45.1215 -174.206
RightUpLeg  -11.118 -7.38992 0.511184
RightLeg  15.6696 -17.0057 -0.122096
RightFoot  -5.08719 -0.267636 4.26218
RightToes  1.22775e-009 1.2921e-014 -6.02303e-014
Spine  10.4735 -0.397631 12.7624
Spine1  0.802284 1.40804 -0.306008
HEad  -10.41 22.6637 -10.038
LeftShoulder1  1.52238 -0.299037 -33.9708
LeftArm  16.1022 8.76818 -28.2806
LeftForeArm  4.81265 -1.83006 -18.7943
LeftHand  0.311788 -1.42478 -5.20112
RightShoulder  8.27663 11.5032 48.3013
RightArm  -1.37069 1.61754 13.4642
RightForeArm  21.8745 -2.65198 15.8478
RightHand  0.086558 6.29848 0.518266
LeftUpLeg  -7.32658 4.18409 11.7537
LeftLeg  43.9909 4.405 4.9273
LeftFoot  1.22486 0.903307 -8.26294
LeftToes  2.52163e-011 5.65494e-011 -1.09494e-012
665
root  52.5794 39.1354 16.2442 176.973 -45.1029 -175.312
RightUpLeg  -10.4221 -7.67621 0.294375
RightLeg  17.3749 -16.2985 -0.742091
RightFoot  -7.02797 -0.206989 4.22474
RightToes  1.22775e-009 1.2921e-014 -6.02303e-014
Spine  10.802 0.0404068 13.1176
Spine1  0.26969 2.08478 -0.946393
HEad  -9.75133 22.3364 -10.1223
LeftShoulder1  1.43905 -0.0995683 -33.8726
LeftArm  13.5424 12.0738 -27.0981
LeftForeArm  6.0758 -2.32477 -18.4126
LeftHand  0.310826 -1.55425 -5.07498
RightShoulder  8.36778 11.7138 48.1545
RightArm  -0.373126 1.9186 12.8686
RightForeArm  23.3036 -2.88558 15.9771
RightHand  0.0737473 6.54248 0.370362
LeftUpLeg  -10.1188 4.5413 10.6276
LeftLeg  47.6185 2.43238 3.26409
LeftFoot  -0.226961 0.783606 -8.03225
LeftToes  2.52163e-011 5.65494e-011 -1.09494e-012
666
root  52.2523 39.1781 15.4018 177.384 -45.7049 -176.277
RightUpLeg  -8.95299 -7.91767 0.0598007
RightLeg  18.0035 -16.6255 -1.30179
RightFoot  -8.6374 -0.158792 4.23904
RightToes  1.22775e-009 1.2921e-014 -6.02303e-014
Spine  10.5572 0.44189 13.0115
Spine1  0.394734 2.47447 -0.997006
HEad  -9.18629 21.9238 -10.5989
LeftShoulder1  1.37964 0.0606296 -34.0011
LeftArm  11.1652 14.8566 -26.4049
LeftForeArm  6.65838 -3.45671 -17.8456
LeftHand  0.342544 -1.83821 -5.35861
RightShoulder  8.26252 11.7348 47.4738
RightArm  -0.636764 2.26308 12.6438
RightForeArm  24.3027 -3.28918 15.9254
RightHand  0.0662289 6.56909 0.295307
LeftUpLeg  -12.5687 4.37965 9.14039
LeftLeg  48.9346 0.997132 1.64732
LeftFoot  -1.41229 0.692671 -7.86941
LeftToes  2.52163e-011 5.65494e-011 -1.09494e-012
667
root  51.9064 39.2598 14.5798 177.982 -46.6988 -177.326
RightUpLeg  -7.17372 -8.20055 -0.308986
RightLeg  17.7753 -17.2842 -1.62946
RightFoot  -9.86329 -0.122179 4.27658
RightToes  1.22775e-009 1.2921e-014 -6.02303e-014
Spine  10.3326 0.684042 12.8971
Spine1  0.19869 2.70254 -1.54252
HEad  -8.65681 21.3941 -10.9504
LeftShoulder1  1.30598 0.227856 -33.7978
LeftArm  11.2111 17.3174 -26.4137
LeftForeArm  5.59408 -5.5618 -17.1135
LeftHand  0.362334 -2.01573 -5.52411
RightShoulder  8.07053 11.5519 46.9242
RightArm  -1.68999 2.30424 12.6508
RightForeArm  24.0339 -3.4725 15.7839
RightHand  0.0677357 6.40603 0.329301
LeftUpLeg  -14.774 4.25949 7.2595
LeftLeg  47.8909 0.699561 1.242
LeftFoot  -2.62457 0.576384 -7.35037
LeftToes  2.52163e-011 5.65494e-011 -1.09494e-012
668
root  51.5591 39.3729 13.7897 178.895 -47.8004 -178.701
RightUpLeg  -5.07048 -8.658 -1.01224
RightLeg  16.7079 -18.0126 -1.48602
RightFoot  -10.764 -0.0956746 4.48128
RightToes  1.22775e-009 1.2921e-014 -6.02303e-014
Spine  10.1088 1.00413 12.3768
Spine1  0.0191183 2.92952 -2.15252
HEad  -8.33078 20.7306 -11.2798
LeftShoulder1  1.26589 0.330605 -33.8232
LeftArm  11.0108 18.7426 -26.7321
LeftForeArm  5.65033 -6.90164 -16.4952
LeftHand  0.4025 -2.55596 -5.68856
RightShoulder  7.8938 11.334 46.5636
RightArm  -2.3523 2.19794 12.5307
RightForeArm  22.706 -3.15382 15.7305
RightHand  0.0714992 6.13828 0.382932
LeftUpLeg  -16.5108 4.55174 4.90911
LeftLeg  44.6001 1.33576 1.80206
LeftFoot  -3.8443 0.49626 -7.21721
LeftToes  2.52163e-011 5.65494e-011 -1.09494e-012
669
root  51.2137 39.5122 13.0307 -179.98 -48.8009 179.857
RightUpLeg  -2.86587 -9.01894 -1.80261
RightLeg  14.997 -18.5515 -0.954564
RightFoot  -11.3232 -0.0775945 4.59148
RightToes  1.22775e-009 1.2921e-014 -6.02303e-014
Spine  9.92119 1.39376 11.6442
Spine1  -0.192562 3.19238 -2.83202
HEad  -8.17394 20.0571 -11.5236
LeftShoulder1  1.25266 0.379935 -34.0263
LeftArm  12.3587 19.6784 -27.291
LeftForeArm  4.20734 -8.72581 -15.74
LeftHand  0.429808 -2.76607 -5.91287
RightShoulder  7.79526 11.2056 46.3798
RightArm  -2.57419 2.12099 12.3465
RightForeArm  21.998 -2.852 15.7121
RightHand  0.0669725 6.08507 0.341935
LeftUpLeg  -17.6796 5.60844 2.2693
LeftLeg  39.0914 2.52366 2.56139
LeftFoot  -4.53842 0.461172 -7.2956
LeftToes  2.52163e-011 5.65494e-011 -1.09494e-012
670
root  50.8691 39.6551 12.3023 -178.8 -49.7099 178.561
RightUpLeg  -0.706409 -9.10765 -2.40071
RightLeg  12.8682 -19.2416 -0.273202
RightFoot  -11.5523 -0.0698812 4.63505
RightToes  1.22775e-009 1.2921e-014 -6.02303e-014
Spine  9.66482 1.78736 10.7208
Spine1  -0.318721 3.43344 -3.39688
HEad  -8.04216 19.4594 -11.7524
LeftShoulder1  1.2197 0.470212 -34.1303
LeftArm  12.4958 20.1792 -28.2882
LeftForeArm  3.94829 -9.87215 -15.1086
LeftHand  0.452123 -3.11603 -5.94568
RightShoulder  7.81437 11.2683 46.2933
RightArm  -2.45836 2.13309 12.2202
RightForeArm  21.9998 -2.75493 15.7239
RightHand  0.058102 6.03375 0.256347
LeftUpLeg  -18.2322 8.16708 -0.620526
LeftLeg  31.611 3.26348 2.50531
LeftFoot  -4.34864 0.451629 -6.96028
LeftToes  2.52163e-011 5.65494e-011 -1.09494e-012
671
root  50.5128 39.7667 11.6039 -177.825 -50.5561 177.762
RightUpLeg  1.3372 -8.82133 -2.50378
RightLeg  10.4447 -20.4297 0.413945
RightFoot  -11.6069 -0.0682652 4.53513
RightToes  1.22775e-009 1.2921e-014 -6.02303e-014
Spine  9.22048 2.10663 9.94125
Spine1  -0.292176 3.63282 -3.86971
HEad  -7.82221 19.162 -11.84
LeftShoulder1  1.19883 0.53004 -34.2349
LeftArm  12.4789 20.4285 -29.313
LeftForeArm  3.73824 -10.8421 -14.5115
LeftHand  0.486786 -3.3884 -6.19776
RightShoulder  7.96724 11.542 46.3397
RightArm  -1.94863 2.10826 12.2228
RightForeArm  21.8932 -2.5937 15.7781
RightHand  0.0667144 5.84278 0.36029
LeftUpLeg  -18.4136 12.7554 -3.77114
LeftLeg  22.7874 2.36583 1.41638
LeftFoot  -3.74253 0.531368 -7.65673
LeftToes  2.52163e-011 5.65494e-011 -1.09494e-012
672
root  50.123 39.824 10.9297 -177.248 -51.4418 177.478
RightUpLeg  3.40031 -8.33767 -2.22022
RightLeg  7.9698 -21.8003 1.17319
RightFoot  -11.6502 -0.0663916 4.70546
RightToes  1.22775e-009 1.2921e-014 -6.02303e-014
Spine  8.71485 2.25824 9.423
Spine1  -0.170586 3.73881 -4.28985
HEad  -7.62061 18.9254 -11.7924
LeftShoulder1  1.1984 0.531849 -34.245
LeftArm  11.9825 20.5264 -30.4226
LeftForeArm  4.08543 -11.4871 -14.0391
LeftHand  0.505165 -3.64376 -6.23906
RightShoulder  8.1119 11.7827 46.4392
RightArm  -1.40777 2.20623 12.4367
RightForeArm  21.9629 -2.58776 15.8683
RightHand  0.0847706 6.03839 0.52636
LeftUpLeg  -18.0497 17.6025 -6.64042
LeftLeg  13.4914 1.26996 -0.336432
LeftFoot  -2.55493 0.741306 -9.43534
LeftToes  2.52163e-011 5.65494e-011 -1.09494e-012
673
root  49.6663 39.797 10.2554 -177.211 -52.3261 177.604
RightUpLeg  5.5019 -7.88451 -1.7372
RightLeg  6.10527 -22.8213 1.83696
RightFoot  -12.1126 -0.0484272 5.01799
RightToes  1.22775e-009 1.2921e-014 -6.02303e-014
Spine  8.14543 2.29165 9.01998
Spine1  0.211096 3.74112 -4.43904
HEad  -7.49143 18.8661 -11.7124
LeftShoulder1  1.19918 0.535424 -34.3185
LeftArm  12.3742 20.3283 -31.2158
LeftForeArm  3.85424 -12.1848 -13.5893
LeftHand  0.53533 -3.78559 -6.51291
RightShoulder  8.30944 12.0711 46.6937
RightArm  -0.532078 2.27686 12.6712
RightForeArm  21.5336 -2.19326 15.9819
RightHand  0.0920636 6.00713 0.603686
LeftUpLeg  -15.635 7.22189 -3.7353
LeftLeg  3.69995 16.6775 -5.28748
LeftFoot  -0.596179 0.948231 -10.0272
LeftToes  2.52163e-011 5.65494e-011 -1.09494e-012
674
root  49.137 39.6794 9.54726 -177.775 -53.2217 178.158
RightUpLeg  7.65917 -7.54088 -1.03649
RightLeg  5.0395 -23.878 2.29524
RightFoot  -13.0577 -0.00528942 5.5599
RightToes  1.22775e-009 1.2921e-014 -6.02303e-014
Spine  7.47034 2.31205 8.65322
Spine1  0.739082 3.68842 -4.32466
HEad  -7.07959 18.725 -11.4872
LeftShoulder1  1.2351 0.465999 -34.5747
LeftArm  14.278 19.7599 -31.3959
LeftForeArm  2.91892 -13.0258 -13.1255
LeftHand  0.53325 -3.95737 -6.35499
RightShoulder  8.42787 12.1631 47.0894
RightArm  0.399804 2.30352 12.9735
RightForeArm  21.1789 -1.58189 16.0431
RightHand  0.101145 6.03745 0.69247
LeftUpLeg  -13.8833 3.99101 -3.97423
LeftLeg  -4.17237 24.7783 -7.91616
LeftFoot  1.71546 1.26905 -11.1544
LeftToes  2.52163e-011 5.65494e-011 -1.09494e-012
675
root  48.5297 39.4656 8.80586 -178.859 -53.9541 179.053
RightUpLeg  9.51474 -7.53135 -0.347918
RightLeg  5.58323 -24.3459 2.3209
RightFoot  -14.5989 0.0811274 6.33217
RightToes  1.22775e-009 1.2921e-014 -6.02303e-014
Spine  6.83869 2.34319 8.38067
Spine1  1.18926 3.62504 -4.13252
HEad  -6.5866 18.7707 -10.9149
LeftShoulder1  1.23872 0.451449 -34.501
LeftArm  15.5524 19.0743 -31.5903
LeftForeArm  2.67475 -13.5318 -12.817
LeftHand  0.532954 -4.08322 -6.25796
RightShoulder  8.55282 12.2058 47.6679
RightArm  1.4944 2.2121 13.2962
RightForeArm  20.5647 -0.814546 16.0988
RightHand  0.115376 6.17343 0.819437
LeftUpLeg  -13.2291 2.89112 -4.69292
LeftLeg  -6.49881 28.6295 -8.23395
LeftFoot  3.1939 1.34281 -10.6591
LeftToes  2.52163e-011 5.65494e-011 -1.09494e-012
